<svg width="18" height="19" viewBox="0 0 18 19" fill="none" xmlns="http://www.w3.org/2000/svg">
<path d="M16 17.0003V7.79933L9 2.27733L2 7.79933V17.0003H16ZM18 18.0003C18 18.2655 17.8946 18.5199 17.7071 18.7074C17.5196 18.895 17.2652 19.0003 17 19.0003H1C0.734784 19.0003 0.48043 18.895 0.292893 18.7074C0.105357 18.5199 7.92656e-08 18.2655 7.92656e-08 18.0003V7.31433C-6.00579e-05 7.16328 0.0340991 7.01418 0.0999132 6.87822C0.165727 6.74226 0.261486 6.62298 0.38 6.52933L8.38 0.218328C8.55655 0.0788187 8.77499 0.00292969 9 0.00292969C9.22501 0.00292969 9.44345 0.0788187 9.62 0.218328L17.62 6.52833C17.7386 6.62208 17.8345 6.74153 17.9003 6.87767C17.9661 7.01381 18.0002 7.16311 18 7.31433V18.0003ZM4 10.0003H6C6 10.796 6.31607 11.559 6.87868 12.1216C7.44129 12.6843 8.20435 13.0003 9 13.0003C9.79565 13.0003 10.5587 12.6843 11.1213 12.1216C11.6839 11.559 12 10.796 12 10.0003H14C14 11.3264 13.4732 12.5982 12.5355 13.5359C11.5979 14.4735 10.3261 15.0003 9 15.0003C7.67392 15.0003 6.40215 14.4735 5.46447 13.5359C4.52678 12.5982 4 11.3264 4 10.0003Z" fill="#074992"/>
</svg>
