<svg width="56" height="56" viewBox="0 0 56 56" fill="none" xmlns="http://www.w3.org/2000/svg">
<path opacity="0.4" d="M53.2144 49.5879C52.4622 48.4619 52.0613 47.1379 52.0625 45.7837V38.8461C52.0892 36.0193 51.2216 33.2565 49.5835 30.9527C47.9455 28.6488 45.621 26.9217 42.9424 26.0185C44.1197 25.3235 45.0958 24.3339 45.7744 23.1471C46.453 21.9603 46.8108 20.6171 46.8125 19.25C46.8125 19.1351 46.7899 19.0213 46.746 18.9151C46.702 18.8089 46.6375 18.7125 46.5563 18.6312C46.475 18.55 46.3786 18.4855 46.2724 18.4415C46.1662 18.3976 46.0524 18.375 45.9375 18.375H31.0625C30.9476 18.375 30.8338 18.3976 30.7276 18.4415C30.6214 18.4855 30.525 18.55 30.4437 18.6312C30.3625 18.7125 30.298 18.8089 30.254 18.9151C30.2101 19.0213 30.1875 19.1351 30.1875 19.25C30.1887 20.6752 30.5764 22.0734 31.3093 23.2957C32.0422 24.518 33.0928 25.5187 34.3494 26.1913C31.8443 27.1325 29.6854 28.8146 28.1603 31.0136C26.6352 33.2125 25.8163 35.8239 25.8125 38.5V45.7837C25.8138 47.1375 25.413 48.4613 24.6611 49.5871C24.3033 50.1234 24.0979 50.7468 24.0667 51.3908C24.0355 52.0347 24.1796 52.6751 24.4837 53.2435C24.7879 53.812 25.2406 54.2873 25.7937 54.6186C26.3467 54.95 26.9793 55.125 27.624 55.125H50.251C50.8956 55.125 51.5282 54.9501 52.0812 54.6188C52.6342 54.2875 53.0869 53.8124 53.3911 53.244C53.6953 52.6757 53.8395 52.0354 53.8084 51.3915C53.7772 50.7476 53.5719 50.1243 53.2144 49.5879V49.5879ZM31.9999 20.125H45.0001C44.8314 21.2754 44.3395 22.3543 43.5817 23.2361C42.8239 24.1179 41.8313 24.7665 40.7193 25.1063C41.0852 24.4307 41.36 23.7097 41.5364 22.9619C41.591 22.7373 41.5545 22.5003 41.4349 22.3025C41.3153 22.1047 41.1223 21.9623 40.8981 21.9063C40.6739 21.8504 40.4366 21.8854 40.2381 22.0037C40.0396 22.1221 39.8959 22.3142 39.8386 22.5381C39.2063 25.0673 38.1578 25.3487 38.0331 25.3737C36.5659 25.3649 35.1505 24.8306 34.0436 23.8676C32.9367 22.9046 32.2116 21.5768 31.9999 20.125ZM38.9375 49C37.2069 49 35.5152 48.4868 34.0763 47.5254C32.6373 46.5639 31.5158 45.1973 30.8536 43.5985C30.1913 41.9996 30.018 40.2403 30.3556 38.543C30.6933 36.8456 31.5266 35.2865 32.7503 34.0628C33.974 32.8391 35.5331 32.0057 37.2305 31.6681C38.9278 31.3305 40.6871 31.5038 42.286 32.1661C43.8848 32.8283 45.2514 33.9498 46.2129 35.3888C47.1743 36.8277 47.6875 38.5194 47.6875 40.25C47.6848 42.5698 46.7621 44.7939 45.1218 46.4343C43.4814 48.0746 41.2573 48.9973 38.9375 49Z" fill="#40A9FF"/>
<path opacity="0.4" d="M38.9375 33.25C37.553 33.25 36.1997 33.6605 35.0485 34.4297C33.8974 35.1989 33.0002 36.2921 32.4703 37.5712C31.9405 38.8503 31.8019 40.2578 32.072 41.6156C32.3421 42.9735 33.0088 44.2208 33.9878 45.1997C34.9667 46.1787 36.214 46.8454 37.5719 47.1155C38.9297 47.3856 40.3372 47.247 41.6163 46.7172C42.8954 46.1873 43.9886 45.2901 44.7578 44.139C45.527 42.9878 45.9375 41.6345 45.9375 40.25C45.9354 38.3941 45.1972 36.6149 43.8849 35.3026C42.5726 33.9903 40.7934 33.2521 38.9375 33.25ZM38.9375 45.5C37.5456 45.4985 36.2111 44.9449 35.2269 43.9606C34.2426 42.9764 33.689 41.6419 33.6875 40.25C33.6875 40.0179 33.7797 39.7954 33.9438 39.6313C34.1079 39.4672 34.3304 39.375 34.5625 39.375C34.7946 39.375 35.0171 39.4672 35.1812 39.6313C35.3453 39.7954 35.4375 40.0179 35.4375 40.25C35.4385 41.178 35.8076 42.0676 36.4637 42.7238C37.1199 43.3799 38.0096 43.749 38.9375 43.75C39.1696 43.75 39.3921 43.8422 39.5562 44.0063C39.7203 44.1704 39.8125 44.3929 39.8125 44.625C39.8125 44.8571 39.7203 45.0796 39.5562 45.2437C39.3921 45.4078 39.1696 45.5 38.9375 45.5ZM43.3125 41.125C43.1976 41.125 43.0838 41.1024 42.9776 41.0585C42.8714 41.0145 42.775 40.95 42.6937 40.8688C42.6125 40.7875 42.548 40.6911 42.504 40.5849C42.4601 40.4787 42.4375 40.3649 42.4375 40.25C42.4365 39.322 42.0675 38.4324 41.4113 37.7762C40.7551 37.1201 39.8655 36.751 38.9375 36.75C38.7054 36.75 38.4829 36.6578 38.3188 36.4937C38.1547 36.3296 38.0625 36.1071 38.0625 35.875C38.0625 35.6429 38.1547 35.4204 38.3188 35.2563C38.4829 35.0922 38.7054 35 38.9375 35C40.3294 35.0015 41.6639 35.5551 42.6481 36.5394C43.6324 37.5236 44.186 38.8581 44.1875 40.25C44.1875 40.3649 44.1649 40.4787 44.121 40.5849C44.077 40.6911 44.0125 40.7875 43.9313 40.8688C43.85 40.95 43.7536 41.0145 43.6474 41.0585C43.5412 41.1024 43.4274 41.125 43.3125 41.125Z" fill="#40A9FF"/>
<path d="M41.5625 17.7064L42.9784 14.8746H45.0625C45.1774 14.8746 45.2912 14.852 45.3974 14.808C45.5036 14.7641 45.6 14.6996 45.6813 14.6184C45.7625 14.5371 45.827 14.4406 45.871 14.3345C45.9149 14.2283 45.9375 14.1145 45.9375 13.9996V10.4996C45.9375 10.3847 45.9149 10.2709 45.871 10.1647C45.827 10.0585 45.7625 9.96205 45.6813 9.88079C45.6 9.79953 45.5036 9.73508 45.3974 9.69112C45.2912 9.64716 45.1774 9.62454 45.0625 9.62458H43.5014L24.4244 0.953186C24.3107 0.901656 24.1873 0.875 24.0625 0.875C23.9377 0.875 23.8143 0.901656 23.7006 0.953186L4.62355 9.62458H3.0625C2.94758 9.62454 2.83379 9.64716 2.72762 9.69112C2.62144 9.73508 2.52497 9.79953 2.44371 9.88079C2.36245 9.96205 2.298 10.0585 2.25404 10.1647C2.21008 10.2709 2.18747 10.3847 2.1875 10.4996V13.9996C2.18747 14.1145 2.21008 14.2283 2.25404 14.3345C2.29801 14.4406 2.36246 14.5371 2.44372 14.6184C2.52497 14.6996 2.62144 14.7641 2.72762 14.808C2.83379 14.852 2.94758 14.8746 3.0625 14.8746H5.14661L6.5625 17.7064V36.5428L5.14661 39.3746H3.0625C2.94758 39.3745 2.83379 39.3972 2.72762 39.4411C2.62144 39.4851 2.52497 39.5495 2.44371 39.6308C2.36245 39.712 2.298 39.8085 2.25404 39.9147C2.21008 40.0209 2.18747 40.1347 2.1875 40.2496V43.7496C2.18747 43.8645 2.21008 43.9783 2.25404 44.0845C2.29801 44.1906 2.36246 44.2871 2.44372 44.3684C2.52497 44.4496 2.62144 44.5141 2.72762 44.558C2.83379 44.602 2.94758 44.6246 3.0625 44.6246H45.0625C45.1774 44.6246 45.2912 44.602 45.3974 44.558C45.5036 44.5141 45.6 44.4496 45.6813 44.3684C45.7625 44.2871 45.827 44.1906 45.871 44.0845C45.9149 43.9783 45.9375 43.8645 45.9375 43.7496V40.2496C45.9375 40.1347 45.9149 40.0209 45.871 39.9147C45.827 39.8085 45.7625 39.712 45.6813 39.6308C45.6 39.5495 45.5036 39.4851 45.3974 39.4411C45.2912 39.3972 45.1774 39.3745 45.0625 39.3746H42.9784L41.5625 36.5428V17.7064ZM28.9784 39.3746L27.5625 36.5428V17.7064L28.9784 14.8746H33.1466L34.5625 17.7064V36.5428L33.1466 39.3746H28.9784ZM14.9784 39.3746L13.5625 36.5428V17.7064L14.9784 14.8746H19.1466L20.5625 17.7064V36.5428L19.1466 39.3746H14.9784ZM8.3125 18.3746H11.8125V35.8746H8.3125V18.3746ZM22.3125 18.3746H25.8125V35.8746H22.3125V18.3746ZM26.1466 16.6246H21.9784L21.1034 14.8746H27.0216L26.1466 16.6246ZM21.9784 37.6246H26.1466L27.0216 39.3746H21.1034L21.9784 37.6246ZM36.3125 18.3746H39.8125V35.8746H36.3125V18.3746ZM40.1466 16.6246H35.9784L35.1034 14.8746H41.0216L40.1466 16.6246ZM24.0625 2.71088L39.2729 9.62458H8.85211L24.0625 2.71088ZM3.9375 11.3746H44.1875V13.1246H3.9375V11.3746ZM13.0216 14.8746L12.1466 16.6246H7.97839L7.10339 14.8746H13.0216ZM7.97839 37.6246H12.1466L13.0216 39.3746H7.10339L7.97839 37.6246ZM44.1875 42.8746H3.9375V41.1246H44.1875V42.8746ZM35.1034 39.3746L35.9784 37.6246H40.1466L41.0216 39.3746H35.1034Z" fill="#505F79"/>
</svg>
